<?xml version="1.0" encoding="UTF-8"?>
<!DOCTYPE svg PUBLIC "-//W3C//DTD SVG 1.1//EN" "http://www.w3.org/Graphics/SVG/1.1/DTD/svg11.dtd">
<!-- Creator: CorelDRAW X7 -->
<svg xmlns="http://www.w3.org/2000/svg" xml:space="preserve" width="102.648mm" height="77.6564mm" version="1.1" style="shape-rendering:geometricPrecision; text-rendering:geometricPrecision; image-rendering:optimizeQuality; fill-rule:evenodd; clip-rule:evenodd"
viewBox="0 0 3224 2439"
 xmlns:xlink="http://www.w3.org/1999/xlink">
 <defs>
  <style type="text/css">
   <![CDATA[
    .fil1 {fill:#FFF212}
    .fil2 {fill:#68BFB5}
    .fil0 {fill:#CA243A}
   ]]>
  </style>
 </defs>
 <g id="Layer_x0020_1">
  <metadata id="CorelCorpID_0Corel-Layer"/>
  <g id="_622643000">
   <path class="fil0" d="M102 21c-141,51 -158,316 93,332 198,13 440,0 643,0 432,1 864,1 1296,1 156,0 465,-27 589,55 151,101 206,298 112,458 -140,240 -316,123 -439,203 -163,104 -84,331 169,320 842,-38 875,-1244 115,-1369 -149,-25 -1064,-13 -1288,-14 -191,0 -1188,-23 -1290,14z"/>
   <path class="fil0" d="M1899 949c-117,363 -283,892 -319,1007 -27,87 -26,143 -133,131 -82,-65 -26,-143 2,-230 47,-149 222,-661 231,-742 -119,-12 -730,-22 -809,21 -91,52 -116,189 -39,272 88,96 254,33 365,58 10,131 -222,452 -114,710 46,110 118,182 225,230 163,72 381,24 497,-115 197,-236 344,-1202 475,-1343l-381 1z"/>
   <path class="fil1" d="M2636 844c97,-33 91,-198 34,-278 -67,-93 -186,-72 -292,-72 -79,0 -299,-11 -360,5 -10,17 -58,161 -119,349 131,-8 678,28 737,-4z"/>
   <path class="fil2" d="M1837 511c-52,-21 -779,-8 -899,-8 -123,0 -330,-13 -440,16 -118,30 -149,194 -59,283 80,79 289,51 399,51 95,0 870,10 897,-9 26,-19 112,-304 102,-333z"/>
  </g>
 </g>
</svg>
